# xmcd
#
# Track frame offsets: 
#        150
#        18120
#        35425
#        55133
#        82320
#        107270
#        126958
#        147793
#        166590
#        185523
#
# Disc length: 2867 seconds
#
# Revision: 2
# Processed by: cddbd v1.5.2PL0 Copyright (c) Steve Scherf et al.
# Submitted via: ExactAudioCopy v1.0b3
#
DISCID=780b310a
DTITLE=Ruby Turner - The Other Side
DYEAR=1991
DGENRE=Soul
TTITLE0=The Vibe Is Right
TTITLE1=The Other Side
TTITLE2=Rumors
TTITLE3=A Little Bit More
TTITLE4=Thinking About Your Love
TTITLE5=Put Your Trust In Me
TTITLE6=Merry Go Round
TTITLE7=Soldier
TTITLE8=Secret Knight
TTITLE9=Provoking (Love Strokin')
EXTD=
EXTT0=
EXTT1=
EXTT2=
EXTT3=
EXTT4=
EXTT5=
EXTT6=
EXTT7=
EXTT8=
EXTT9=
PLAYORDER=
